<?xml version="1.0" standalone="no"?>
<!DOCTYPE svg PUBLIC "-//W3C//DTD SVG 20010904//EN" "http://www.w3.org/TR/2001/REC-SVG-20010904/DTD/svg10.dtd">
<svg version="1.0" xmlns="http://www.w3.org/2000/svg" width="1500.000000pt" height="1500.000000pt" viewBox="0 0 1500.000000 1500.000000" preserveAspectRatio="xMidYMid meet">
	<g transform="translate(0.000000,1500.000000) scale(0.100000,-0.100000)" fill="#000000" stroke="none" opacity="0.7">
		<path d="M0 7500 l0 -7500 7500 0 7500 0 0 7500 0 7500 -7500 0 -7500 0 0
-7500z m8610 5536 c439 -51 779 -125 1170 -256 671 -224 1268 -563 1830 -1038
147 -124 446 -422 579 -577 557 -649 955 -1411 1171 -2240 189 -720 230 -1501
119 -2235 -139 -917 -495 -1775 -1042 -2507 -173 -231 -300 -377 -526 -604
-449 -448 -872 -754 -1431 -1033 -909 -453 -1909 -643 -2910 -551 -1560 143
-2965 937 -3910 2210 -93 125 -145 201 -123 180 5 -5 52 -66 103 -135 155
-207 285 -356 480 -550 212 -212 350 -333 570 -499 721 -543 1563 -894 2445
-1020 288 -41 363 -46 760 -46 416 0 517 8 844 61 1705 275 3179 1373 3946
2939 311 634 489 1294 545 2014 13 174 13 608 0 782 -92 1188 -531 2258 -1297
3159 -141 166 -425 448 -593 590 -355 299 -700 526 -1105 725 -586 289 -1160
453 -1840 527 -163 18 -847 18 -1010 0 -691 -75 -1288 -248 -1876 -543 -341
-170 -626 -354 -964 -621 -55 -44 -82 -63 -60 -42 72 66 282 231 418 327 807
573 1740 912 2742 996 166 14 803 5 965 -13z m-4794 -1815 c33 -16 84 -34 114
-40 76 -16 166 -67 198 -112 34 -48 77 -53 130 -13 31 24 38 26 86 18 28 -5
102 -9 164 -9 61 0 112 -1 112 -3 0 -1 -15 -11 -32 -22 -26 -16 -51 -20 -118
-20 -116 0 -162 -9 -158 -29 2 -9 12 -17 23 -19 35 -7 41 -22 8 -22 -16 0 -48
-12 -69 -26 -21 -15 -53 -33 -71 -40 -46 -20 -131 -17 -179 5 -23 10 -65 22
-95 26 -52 7 -119 29 -119 39 0 3 32 4 71 3 60 -2 73 1 85 17 38 52 -8 115
-128 178 -75 39 -188 129 -188 149 0 5 24 -5 53 -22 28 -17 79 -43 113 -58z
m-1476 -168 c2 -2 -2 -8 -10 -13 -12 -7 -11 -12 5 -30 10 -11 33 -30 51 -41
39 -24 72 -90 80 -163 7 -55 -1 -126 -14 -126 -4 0 -15 20 -25 44 -10 25 -52
85 -94 133 -61 71 -83 91 -119 102 -59 19 -84 9 -127 -54 -31 -46 -161 -154
-172 -143 -9 9 25 105 50 142 14 20 25 38 25 40 0 2 -17 6 -39 10 -21 3 -43
12 -50 19 -9 12 2 15 61 20 42 3 105 17 148 33 41 15 93 31 115 35 37 6 104 2
115 -8z m2983 -236 c100 -61 177 -94 271 -118 138 -35 208 -77 269 -160 28
-39 33 -41 70 -36 23 3 55 18 77 36 45 36 76 39 177 15 67 -16 192 -15 252 2
35 10 23 -16 -20 -41 -29 -17 -58 -21 -186 -25 -83 -3 -154 -8 -158 -11 -12
-13 9 -40 36 -46 44 -8 44 -20 0 -27 -21 -3 -55 -18 -77 -32 -109 -75 -216
-89 -315 -42 -30 14 -81 28 -116 32 -66 6 -143 32 -143 48 0 7 23 8 63 4 73
-8 109 2 132 38 38 57 -25 135 -165 206 -89 45 -184 115 -223 164 -15 20 -25
36 -22 36 4 0 39 -20 78 -43z m-1503 -277 c12 -8 12 -10 -3 -16 -27 -10 -20
-29 21 -59 77 -58 101 -87 123 -154 26 -76 30 -193 10 -230 l-13 -24 -13 35
c-21 63 -65 128 -141 210 -41 45 -74 84 -74 89 0 15 -87 40 -131 37 -40 -3
-46 -7 -76 -52 -17 -27 -49 -67 -70 -88 -43 -44 -152 -120 -164 -113 -12 8 37
135 70 182 17 24 31 46 31 48 0 3 -13 5 -30 5 -35 0 -101 30 -94 42 3 4 9 6
13 4 15 -10 165 16 233 40 40 14 93 32 118 39 52 16 168 19 190 5z m-1855
-219 c51 -29 119 -58 168 -71 119 -32 156 -51 210 -108 56 -61 84 -66 138 -26
32 24 38 25 94 17 33 -4 108 -8 168 -7 59 0 107 -1 107 -3 0 -2 -15 -12 -32
-23 -27 -16 -51 -20 -129 -20 -165 0 -202 -20 -104 -56 16 -6 12 -9 -20 -14
-23 -3 -56 -17 -75 -32 -73 -54 -183 -62 -254 -19 -21 13 -50 21 -80 21 -26 0
-63 8 -84 17 l-37 18 73 3 c63 2 74 6 88 26 33 51 -21 119 -140 176 -58 27
-206 149 -184 150 4 0 46 -22 93 -49z m6284 -370 c62 -23 107 -50 199 -120
l119 -91 184 -21 c101 -12 187 -24 190 -28 3 -3 54 -70 113 -149 l108 -142
-20 -85 -19 -85 98 -63 98 -62 21 -90 22 -90 -188 -349 -188 -349 67 -271 68
-271 -1 -171 0 -171 -82 -24 -83 -24 -57 -84 c-32 -46 -59 -88 -61 -94 -2 -7
-340 -18 -962 -33 l-959 -23 -113 106 c-62 58 -113 109 -113 113 0 5 16 43 35
86 19 42 35 82 35 89 0 6 -18 55 -40 108 l-40 96 94 128 c85 117 96 137 125
231 l32 104 -10 131 c-6 72 -11 136 -11 142 0 6 17 21 38 33 20 12 43 25 49
30 7 4 44 110 82 235 l70 227 176 202 c96 110 175 204 175 209 0 4 -34 38 -75
75 l-76 68 138 138 138 138 108 0 108 0 156 115 c87 63 161 115 165 115 4 0
43 -13 87 -29z m1887 -104 l129 -83 11 -50 c13 -60 -10 -26 333 -497 l275
-377 76 0 c74 0 81 -2 171 -52 52 -28 167 -109 256 -180 l162 -129 153 -51
153 -50 130 -128 c72 -70 152 -140 179 -155 95 -54 181 -150 211 -235 14 -40
14 -42 -18 -90 -25 -38 -55 -63 -134 -112 -56 -35 -102 -68 -103 -74 0 -6 9
-36 19 -67 l20 -57 -110 -102 c-89 -83 -132 -114 -222 -162 l-112 -60 -645 -7
c-355 -4 -819 -8 -1031 -8 l-385 -1 -44 230 -44 230 26 92 c15 51 32 134 38
183 l12 91 -61 123 -62 123 23 228 c28 271 24 307 -39 416 -68 115 -83 162
-70 212 6 23 14 42 17 42 3 0 21 -26 41 -57 33 -55 35 -60 24 -98 -11 -35 -9
-46 11 -94 13 -29 39 -79 58 -110 52 -85 55 -125 31 -361 l-21 -205 57 -116
58 -116 -15 -94 c-8 -52 -25 -125 -37 -162 l-21 -68 42 -211 c23 -116 43 -212
44 -212 2 -1 429 2 950 7 l946 10 114 58 c91 48 131 76 207 147 l94 89 -16 48
c-10 27 -17 54 -17 60 0 7 42 38 94 69 52 32 102 68 110 82 49 75 47 65 21
122 -31 68 -103 144 -179 189 -34 20 -111 85 -171 144 l-110 109 -147 49 -147
49 -145 113 c-79 62 -188 137 -240 166 -90 50 -100 53 -165 53 l-69 0 -272
365 c-220 296 -274 375 -285 416 -8 28 -15 52 -17 54 -7 6 -199 125 -218 135
-15 8 -36 4 -99 -20 -73 -29 -80 -34 -96 -72 l-16 -41 -109 7 -109 6 -30 -97
c-17 -53 -29 -104 -26 -114 11 -35 -16 -101 -61 -149 -24 -26 -44 -51 -44 -56
0 -5 -5 -27 -11 -48 l-11 -40 -42 67 -43 68 14 56 c10 38 25 66 49 89 50 51
75 107 73 162 -2 31 9 80 31 146 l33 99 116 -6 116 -6 20 46 c19 42 25 47 100
78 44 18 83 34 86 34 3 1 64 -36 135 -82z m-7952 -1451 c189 -44 280 -124 281
-246 0 -111 -87 -199 -246 -250 l-72 -23 169 -167 c175 -173 199 -189 298
-205 l39 -6 -25 -25 c-33 -33 -81 -43 -205 -44 -97 0 -103 1 -103 21 0 37 -20
62 -186 229 l-164 165 -103 -10 -102 -10 0 -131 c0 -150 8 -169 74 -179 20 -4
44 -10 54 -13 18 -7 18 -8 0 -30 -10 -13 -36 -27 -58 -32 -34 -8 -315 -15
-315 -7 0 1 11 24 25 51 l25 49 0 368 0 368 -23 27 c-20 23 -34 28 -85 32 -34
2 -62 8 -62 11 0 4 13 20 29 35 41 40 96 45 416 41 202 -2 287 -7 339 -19z
m1186 -404 c0 -16 -45 -50 -84 -62 -34 -11 -40 -10 -48 4 -8 13 -29 16 -141
16 -73 0 -137 -4 -144 -8 -7 -4 -12 -39 -14 -87 l-2 -80 156 1 c87 0 157 -3
157 -7 0 -25 -41 -34 -173 -39 l-140 -5 2 -110 c1 -69 6 -112 14 -117 22 -14
164 -21 292 -14 l130 7 -28 -28 -27 -28 -260 -3 c-144 -2 -260 0 -260 5 0 5 6
15 13 21 9 9 13 73 15 228 4 247 0 264 -64 264 -31 0 -34 2 -24 19 5 11 20 22
32 24 43 8 598 7 598 -1z m264 -9 c-4 -10 -7 -30 -6 -44 2 -46 171 -419 190
-419 9 0 134 219 160 280 33 79 36 106 13 129 -13 13 -34 21 -56 21 -38 0 -44
10 -19 31 15 12 244 28 244 16 0 -10 -174 -334 -234 -436 -62 -106 -75 -117
-149 -135 -28 -7 -28 -6 -133 211 -58 120 -115 238 -127 263 -17 34 -29 46
-55 53 -27 6 -31 11 -22 22 15 18 38 22 129 24 66 1 72 -1 65 -16z m830 0 c-5
-10 -10 -122 -12 -249 -3 -250 -3 -252 52 -256 31 -3 29 -18 -5 -35 -21 -11
-189 -19 -189 -9 0 2 7 20 15 39 12 28 15 80 15 229 0 215 -5 235 -59 253
l-35 11 24 17 c19 13 46 17 113 17 82 0 88 -2 81 -17z m836 2 c0 -18 -36 -42
-80 -55 -24 -7 -36 -6 -47 5 -19 19 -272 22 -291 3 -7 -7 -12 -43 -12 -91 l0
-80 160 5 160 5 -22 -24 c-20 -22 -28 -23 -160 -23 l-138 0 0 -109 c0 -89 3
-111 17 -122 12 -11 61 -14 214 -14 185 1 197 0 188 -17 -16 -30 -78 -38 -318
-38 -219 0 -233 1 -225 18 5 9 10 120 12 247 3 254 3 255 -61 255 -18 0 -27 4
-25 13 11 32 51 37 341 37 246 0 287 -2 287 -15z m265 -18 c-5 -23 1 -53 18
-97 36 -94 159 -350 168 -350 4 0 38 61 75 136 l66 136 -34 76 c-30 67 -37 77
-67 85 -32 8 -33 9 -17 25 12 13 39 18 101 20 l83 4 -5 -39 c-6 -45 30 -139
126 -330 l58 -117 26 45 c45 77 125 252 139 303 12 46 12 49 -11 67 -13 11
-39 19 -58 19 -44 0 -40 20 8 37 34 12 219 18 219 7 0 -3 -9 -18 -19 -33 -11
-15 -38 -70 -61 -122 -118 -268 -207 -409 -260 -409 -10 0 -24 -2 -32 -5 -9
-4 -35 38 -83 135 -38 77 -72 140 -75 140 -3 0 -16 -21 -29 -47 -12 -27 -43
-83 -68 -125 -46 -76 -61 -88 -124 -102 -28 -6 -36 9 -223 407 -53 112 -57
117 -86 117 -32 0 -38 11 -17 28 18 15 45 20 120 21 l68 1 -6 -33z m775 -882
l0 -25 -2409 0 c-1669 0 -2412 3 -2416 10 -4 6 -4 17 -1 25 5 13 318 15 2416
15 l2410 0 0 -25z m1535 -705 c265 -30 481 -156 569 -330 80 -161 70 -373 -25
-522 -46 -71 -149 -161 -232 -201 -154 -76 -368 -109 -572 -88 -302 30 -508
149 -601 346 -96 203 -50 455 111 603 103 94 243 158 397 181 40 6 84 13 98
15 52 7 168 5 255 -4z m3831 -15 c90 -17 199 -52 258 -82 l39 -20 -29 -20
c-47 -33 -121 -53 -228 -62 -56 -4 -103 -6 -105 -4 -3 2 5 10 17 19 46 32 12
71 -81 91 -229 48 -485 -46 -600 -220 -61 -91 -80 -164 -75 -292 3 -101 6
-116 35 -176 61 -124 186 -217 339 -254 101 -24 312 -18 368 10 67 34 80 61
84 181 4 92 2 107 -14 125 -36 40 -75 52 -192 57 l-113 5 23 24 c51 55 64 57
320 58 l236 1 -19 -37 c-17 -34 -19 -60 -19 -225 l0 -186 -33 -33 c-111 -111
-606 -126 -886 -26 -275 97 -417 303 -382 554 18 128 66 221 162 314 123 118
280 186 489 213 90 12 309 4 406 -15z m-9905 5 l116 0 -29 -56 c-28 -56 -28
-60 -28 -230 l0 -174 410 0 410 0 0 153 c0 125 -3 157 -16 176 -21 29 -72 51
-119 51 -19 0 -35 3 -35 8 1 13 24 38 55 58 26 17 45 19 209 16 100 -2 182 -4
183 -6 1 -1 -10 -26 -25 -56 l-27 -55 -3 -402 c-3 -419 1 -473 38 -493 11 -6
43 -15 71 -20 29 -6 55 -12 57 -15 11 -10 -43 -55 -77 -65 -30 -8 -361 -15
-361 -7 0 1 11 24 25 51 25 48 25 54 25 283 l0 233 -410 0 -410 0 0 -210 c0
-209 0 -211 24 -235 13 -13 41 -27 62 -30 22 -4 50 -10 64 -14 l24 -7 -26 -26
c-38 -39 -87 -48 -266 -48 l-163 0 28 48 28 47 3 429 c2 374 1 431 -13 452
-23 36 -55 53 -114 61 l-54 8 27 32 c31 37 83 54 151 48 28 -3 102 -5 166 -5z
m2376 -10 c18 -11 46 -39 64 -62 89 -123 308 -530 389 -723 94 -225 88 -217
184 -234 l40 -6 -30 -33 c-38 -43 -78 -51 -253 -52 -130 0 -143 2 -137 17 31
80 27 168 -14 276 l-21 57 -379 0 -379 0 -21 -57 c-28 -75 -45 -155 -37 -176
3 -9 26 -22 51 -29 l45 -12 -20 -28 c-11 -15 -36 -32 -57 -38 -33 -9 -292 -15
-292 -7 0 2 20 44 44 93 24 49 65 141 91 204 60 147 171 377 269 555 42 77 75
149 74 160 -2 14 -14 23 -40 29 -42 10 -43 13 -24 38 31 42 64 48 246 48 156
0 178 -2 207 -20z m1983 -30 c-19 -38 -20 -57 -20 -475 l0 -437 28 -28 c20
-19 44 -31 76 -35 77 -12 522 2 594 18 34 7 62 11 62 7 0 -15 -98 -99 -130
-111 -27 -10 -130 -13 -470 -14 l-436 0 26 45 25 45 3 385 c2 212 0 409 -3
439 -8 65 -36 97 -91 106 -22 3 -52 9 -68 13 -28 7 -28 7 -10 30 34 41 85 51
267 52 l167 0 -20 -40z m3015 19 c4 -12 196 -218 428 -458 231 -240 423 -439
426 -443 3 -4 5 167 3 380 -2 315 -5 391 -17 408 -15 23 -86 44 -145 44 -34 0
-38 14 -15 47 24 34 76 43 242 43 l153 0 -23 -42 c-22 -43 -22 -47 -22 -485
l0 -441 24 -26 c26 -27 76 -46 124 -46 36 0 33 -24 -6 -54 -26 -19 -44 -21
-213 -24 l-184 -4 0 23 c0 15 -53 76 -167 193 -329 336 -510 522 -593 611
l-85 90 3 -375 c3 -414 2 -409 67 -436 19 -8 52 -14 74 -14 50 0 56 -9 28 -44
-30 -37 -75 -45 -240 -46 l-138 0 18 33 c16 29 18 73 21 483 l3 452 -23 26
c-17 20 -38 29 -82 36 -32 5 -61 12 -64 15 -10 10 34 59 59 66 13 4 95 7 181
8 151 1 157 0 163 -20z m-5030 -1272 c-24 -35 -57 -69 -72 -77 -32 -15 -243
-27 -243 -14 1 5 20 34 43 64 60 78 90 90 214 90 l102 0 -44 -63z" />
		<path d="M8130 9877 c-30 -24 -95 -73 -143 -110 l-88 -67 -95 0 -96 0 -72 -77
c-39 -43 -94 -102 -121 -131 l-49 -53 68 -68 c62 -63 67 -71 55 -88 -8 -11
-79 -99 -159 -196 l-145 -178 -53 -182 c-29 -100 -57 -198 -62 -217 -7 -26
-22 -43 -55 -63 -25 -16 -45 -32 -45 -36 0 -5 5 -65 10 -135 11 -126 10 -128
-19 -227 -26 -84 -42 -118 -107 -211 -42 -61 -78 -117 -81 -124 -3 -7 12 -56
32 -109 l37 -96 -37 -81 -37 -81 105 -105 105 -105 853 22 c470 12 858 26 862
31 5 4 30 43 56 86 l47 79 74 26 75 26 3 168 2 167 -59 255 -60 255 169 333
170 332 -19 83 c-11 45 -21 84 -23 85 -2 1 -42 30 -89 63 l-86 61 18 77 c10
42 15 82 12 88 -4 6 -49 70 -100 143 -73 102 -100 133 -121 137 -15 3 -90 13
-166 22 l-139 16 -109 88 c-76 60 -131 96 -177 114 -36 14 -71 26 -76 26 -6 0
-35 -19 -65 -43z" />
		<path d="M1834 8329 c-65 -19 -69 -31 -72 -237 l-4 -185 95 7 c119 8 238 38
297 74 153 95 123 276 -56 332 -70 21 -201 26 -260 9z" />
		<path d="M7603 6286 c-98 -19 -173 -55 -237 -116 -191 -180 -197 -513 -13
-707 88 -93 212 -138 382 -137 227 1 375 83 458 254 115 237 30 547 -179 653
-114 58 -276 78 -411 53z" />
		<path d="M3979 6273 c-14 -37 -79 -165 -139 -273 -52 -93 -150 -286 -150 -295
0 -3 149 -5 330 -5 182 0 330 2 330 5 0 9 -111 227 -163 320 -76 137 -169 275
-184 275 -7 0 -18 -12 -24 -27z" />
	</g>
</svg>
